<?xml version="1.0" encoding="UTF-8"?>
<svg width="24px" height="24px" viewBox="0 0 24 24" version="1.1" xmlns="http://www.w3.org/2000/svg" xmlns:xlink="http://www.w3.org/1999/xlink">
    <title>Apple Logo</title>
    <g id="Apple-Logo" stroke="none" stroke-width="1" fill="none" fill-rule="evenodd">
        <path d="M17.6425,12.0616 C17.6575,10.5848 18.2955,9.3688 19.5915,8.4312 C18.7255,7.2232 17.4615,6.5632 15.8275,6.4452 C14.2775,6.3304 12.5775,7.3608 11.9455,7.3608 C11.2775,7.3608 9.7915,6.4872 8.5755,6.4872 C6.5515,6.5148 4.3715,8.0296 4.3715,11.1224 C4.3715,12.1216 4.5355,13.1552 4.8635,14.2232 C5.3115,15.6648 7.1635,19.6312 9.1055,19.5732 C10.0295,19.5464 10.6655,18.8224 11.8855,18.8224 C13.0655,18.8224 13.6495,19.5732 14.6855,19.5732 C16.6515,19.5432 18.3175,15.9584 18.7375,14.5136 C15.1655,12.9328 15.1655,9.0752 17.6425,12.0616 M14.7915,4.644 C15.7595,3.506 15.6295,2.4752 15.6055,2.1432 C14.7675,2.182 13.7635,2.6984 13.1715,3.3248 C12.5175,4.0128 12.1315,4.8704 12.2375,5.9864 C13.1575,6.0576 14.0295,5.5632 14.7915,4.644" id="Shape" fill="currentColor"></path>
    </g>
</svg>